<?xml version="1.0" encoding="UTF-8"?>
<svg id="art" xmlns="http://www.w3.org/2000/svg" viewBox="0 0 450 450">
  <circle cx="225" cy="225" r="225" transform="translate(-93.2 225) rotate(-45)" fill="#fff"/>
  <path d="M384.1,384.1c-87.87,87.87-230.33,87.87-318.2,0-87.87-87.87-87.87-230.33,0-318.2,87.87-87.87,230.33-87.87,318.2,0,87.87,87.87,87.87,230.33,0,318.2ZM244.37,205.6c26.16,26.16,21.77,60.54,21.77,60.57l.08.08c3.04-3.04,5.61-6.54,7.61-10.39l72.59-139.66c4.23-8.13-4.52-16.89-12.65-12.65l-139.66,72.6c-3.84,1.99-7.34,4.56-10.37,7.6l.02.02c.26-.03,34.55-4.23,60.61,21.84ZM91.07,91.07c-73.85,73.85-73.85,194.02,0,267.87,73.85,73.85,194.02,73.85,267.87,0L91.07,91.07ZM184.05,183.47l-.02-.02c-3.03,3.03-5.6,6.53-7.6,10.37l-72.6,139.66c-4.23,8.13,4.52,16.89,12.65,12.65l139.66-72.59c3.85-2,7.35-4.57,10.39-7.61l-.08-.08s-34.41,4.39-60.57-21.77c-26.07-26.07-21.87-60.35-21.84-60.61Z" fill="#1c75bc"/>
</svg>